<?xml version="1.0" standalone="no"?>
<!DOCTYPE svg PUBLIC "-//W3C//DTD SVG 20010904//EN"
 "http://www.w3.org/TR/2001/REC-SVG-20010904/DTD/svg10.dtd">
<svg version="1.0" xmlns="http://www.w3.org/2000/svg"
 width="339.000000pt" height="339.000000pt" viewBox="0 0 339.000000 339.000000"
 preserveAspectRatio="xMidYMid meet">
<metadata>
Created by potrace 1.14, written by Peter Selinger 2001-2017
</metadata>
<g transform="translate(0.000000,339.000000) scale(0.100000,-0.100000)"
fill="#000000" stroke="none">
<path d="M1774 3124 c3 -20 42 -54 62 -54 14 0 6 10 -43 53 -20 17 -21 17 -19
1z"/>
<path d="M1620 3110 c-8 -5 -12 -12 -9 -15 4 -3 12 1 19 10 14 17 11 19 -10 5z"/>
<path d="M1468 3073 c7 -3 16 -2 19 1 4 3 -2 6 -13 5 -11 0 -14 -3 -6 -6z"/>
<path d="M1680 3055 c23 -25 70 -35 70 -15 0 6 -7 10 -16 10 -8 0 -22 7 -30
15 -9 8 -23 15 -31 15 -13 0 -12 -5 7 -25z"/>
<path d="M1500 3059 c0 -5 5 -7 10 -4 6 3 10 8 10 11 0 2 -4 4 -10 4 -5 0 -10
-5 -10 -11z"/>
<path d="M1290 3029 c0 -8 -12 -10 -36 -6 -34 6 -35 5 -20 -12 12 -13 13 -20
4 -29 -7 -7 -18 -12 -25 -12 -17 0 -17 -17 0 -24 6 -3 -8 -3 -33 0 -33 4 -67
-2 -124 -21 -105 -34 -114 -40 -57 -39 27 0 58 7 71 17 47 33 154 34 166 2 7
-16 -55 -95 -73 -95 -7 0 -10 -7 -7 -15 13 -33 -5 -64 -41 -71 -19 -3 -38 -10
-41 -15 -3 -5 -13 -9 -22 -9 -14 0 -17 7 -14 40 2 22 2 40 0 40 -3 0 -30 -9
-61 -19 -32 -11 -57 -16 -57 -11 0 5 14 11 30 15 17 4 28 11 25 15 -3 5 -17 4
-30 -2 -20 -9 -28 -8 -44 6 -22 20 -22 49 -3 84 12 22 12 22 -7 10 -11 -7 -28
-27 -38 -45 -10 -18 -21 -33 -26 -33 -4 0 -5 -5 -2 -10 4 -6 1 -17 -5 -25 -10
-12 -9 -15 3 -15 11 0 13 -6 9 -22 -7 -28 -52 -78 -69 -78 -15 0 -18 56 -3 65
6 3 10 11 10 17 0 6 -11 3 -24 -6 -16 -10 -27 -12 -31 -6 -4 6 -13 2 -23 -10
-9 -11 -30 -21 -45 -22 -26 -2 -28 -5 -26 -39 2 -21 -3 -44 -11 -54 -19 -23
-69 -47 -85 -41 -8 3 -17 -3 -20 -13 -3 -10 -14 -29 -25 -41 -24 -28 -25 -39
-5 -46 23 -9 19 -54 -4 -54 -11 0 -21 5 -23 12 -2 6 -14 -5 -26 -25 -12 -21
-17 -37 -11 -37 6 0 9 -12 7 -27 -4 -38 -51 -56 -72 -28 -13 18 -14 18 -26 -5
-8 -15 -10 -42 -6 -81 6 -49 4 -59 -11 -68 -15 -8 -15 -10 -2 -11 8 0 21 6 28
13 11 10 12 7 6 -13 -8 -27 -33 -60 -46 -60 -4 0 -9 8 -12 18 -2 9 -4 -25 -4
-75 0 -96 -12 -129 -41 -118 -12 4 -13 -2 -7 -37 17 -102 13 -145 -18 -186
-14 -18 -37 4 -38 37 l-1 26 -8 -25 c-19 -58 -12 -91 27 -128 29 -27 37 -41
35 -63 -4 -37 12 -65 48 -84 35 -18 47 -50 27 -73 -9 -9 -16 -21 -16 -27 0 -5
-2 -24 -6 -42 -9 -47 17 -89 73 -117 58 -30 94 -67 94 -98 0 -13 -6 -41 -13
-63 -23 -76 11 -156 71 -168 37 -8 92 -60 110 -105 19 -48 55 -72 107 -72 24
0 52 4 62 10 15 8 20 3 30 -30 20 -68 101 -105 183 -82 34 9 36 8 51 -23 9
-18 33 -46 53 -62 34 -25 44 -28 104 -25 64 2 67 1 107 -37 52 -48 87 -55 167
-35 62 15 63 15 126 -10 78 -32 92 -32 158 -1 63 29 77 30 125 10 66 -27 108
-20 162 27 47 41 47 42 91 30 75 -20 91 -16 148 38 46 44 58 50 95 50 53 0
103 21 123 52 9 13 34 30 57 36 46 14 56 28 66 94 7 46 8 47 65 68 77 29 140
96 140 149 0 11 9 35 20 54 11 18 21 46 22 62 2 20 13 34 39 51 68 43 83 82
52 136 -17 29 -17 31 2 42 11 6 37 27 57 47 48 47 50 84 7 167 -37 71 -34 79
40 117 70 35 83 55 82 120 0 64 -20 115 -21 54 0 -48 -7 -52 -41 -27 -34 25
-40 67 -11 75 13 3 19 14 20 36 0 18 3 61 6 97 5 51 4 60 -4 40 -14 -30 -29
-11 -22 26 2 14 -2 39 -11 57 -8 18 -23 54 -33 81 -15 43 -18 47 -25 29 -12
-33 -28 -37 -66 -17 -39 22 -72 79 -55 96 15 15 55 3 94 -29 18 -15 27 -20 21
-13 -7 8 -13 28 -13 45 -1 31 -28 102 -29 75 -1 -11 -4 -11 -13 -2 -18 18 -27
15 -21 -8 4 -15 0 -20 -14 -20 -23 0 -50 60 -32 71 8 4 7 9 -2 13 -10 4 -11 8
-2 12 8 4 8 12 -3 32 -8 15 -14 38 -14 52 -1 14 -7 36 -14 49 -13 23 -13 23
-19 2 -3 -11 -10 -21 -16 -21 -7 0 -47 35 -91 77 -44 42 -88 81 -97 86 -17 8
-17 8 0 -6 30 -25 19 -40 -13 -17 -16 12 -30 28 -30 36 0 8 -4 14 -9 14 -13 0
-71 50 -71 60 0 4 10 6 23 4 l22 -5 -22 10 c-12 6 -34 28 -49 51 -30 45 -53
37 -30 -9 8 -14 17 -37 20 -51 6 -20 -2 -15 -39 25 -25 28 -43 42 -39 32 9
-26 -14 -47 -52 -47 -28 0 -33 -3 -31 -22 1 -13 8 -28 16 -34 13 -10 13 -14 2
-28 -17 -21 -73 -21 -117 0 -37 17 -43 31 -19 40 8 4 12 11 8 17 -4 7 2 8 18
3 13 -3 38 -9 54 -11 22 -3 20 -2 -7 6 -41 12 -51 29 -18 29 11 0 20 2 20 4 0
5 -112 120 -131 134 -14 11 -16 9 -11 -14 6 -33 -11 -44 -52 -31 -54 17 -61
23 -64 56 -3 25 0 31 15 31 35 0 44 21 18 41 -35 28 -54 22 -22 -6 19 -17 23
-25 13 -25 -8 0 -31 14 -49 30 l-35 30 15 -42 c8 -23 13 -52 11 -65 l-3 -25
-38 26 c-48 33 -60 33 -24 1 21 -20 27 -35 27 -69 0 -23 -3 -45 -6 -48 -3 -4
-30 5 -60 18 -69 30 -89 32 -74 4 13 -25 4 -25 -37 -1 -31 20 -31 20 -37 -2
-7 -28 17 -55 36 -40 23 18 57 21 75 7 11 -8 13 -13 6 -14 -23 0 -13 -20 10
-20 80 0 136 -45 118 -94 -12 -31 -48 -35 -104 -11 -41 17 -54 9 -30 -18 17
-19 17 -19 -7 -13 -23 7 -22 5 8 -21 29 -25 34 -35 32 -68 -3 -62 -2 -67 21
-63 30 4 41 39 23 73 -18 34 -18 33 9 28 14 -3 35 7 61 29 37 30 45 33 120 35
88 2 126 -12 126 -47 0 -11 -12 -27 -27 -37 -45 -27 -83 -66 -83 -83 0 -9 -9
-25 -20 -35 -11 -10 -20 -23 -20 -30 0 -6 -11 -22 -24 -34 -20 -19 -32 -22
-58 -17 -18 3 -40 7 -49 9 -9 1 -27 14 -40 30 -17 19 -39 30 -74 36 -27 5 -51
8 -53 7 -3 -3 -44 30 -92 75 -16 14 -34 45 -40 69 -10 38 -10 43 9 57 12 8 21
20 21 28 0 7 9 17 20 20 11 4 18 10 15 14 -6 11 -50 20 -189 36 -142 17 -163
29 -125 72 13 16 20 25 15 20 -13 -10 -38 51 -31 74 6 18 57 38 100 40 25 1
125 37 105 38 -8 0 -37 -6 -64 -14 -27 -8 -59 -15 -72 -15 -28 0 -39 28 -20
49 14 15 13 17 -4 17 -11 0 -23 -8 -26 -18 -6 -20 -29 -24 -39 -8 -11 18 -65
42 -65 29z m793 -167 c22 -20 22 -54 -2 -83 -17 -21 -22 -22 -45 -11 -15 7
-36 12 -46 12 -17 0 -19 7 -18 55 l2 56 45 -7 c25 -3 54 -13 64 -22z m-853
-82 c32 -32 24 -47 -37 -68 -36 -12 -40 -7 -18 22 8 11 15 30 15 43 0 28 14
29 40 3z m1272 -40 c21 -6 50 -26 68 -48 18 -20 60 -53 94 -72 48 -29 62 -42
64 -64 7 -58 -42 -74 -93 -30 -16 14 -40 30 -53 35 -12 5 -27 20 -34 34 -7 15
-32 35 -65 50 -54 26 -59 36 -47 83 7 25 14 26 66 12z m-1478 -32 c4 -17 -1
-29 -21 -47 -22 -19 -34 -22 -71 -18 -24 3 -51 12 -60 21 -14 14 -14 17 2 35
17 19 44 26 112 29 25 2 33 -3 38 -20z m-334 -43 c0 -18 -5 -25 -20 -25 -24 0
-25 8 -3 32 21 23 23 23 23 -7z m440 -19 c0 -3 -4 -8 -10 -11 -5 -3 -10 -1
-10 4 0 6 5 11 10 11 6 0 10 -2 10 -4z m434 -2 c23 -9 19 -31 -9 -50 -19 -13
-37 -15 -85 -9 -67 8 -81 18 -48 36 47 25 110 35 142 23z m913 -16 c38 -31 -8
-96 -75 -105 -29 -4 -39 -9 -35 -19 10 -28 -42 -11 -58 18 -9 16 -3 29 33 74
42 52 44 54 83 49 21 -3 45 -11 52 -17z m-1298 -19 c17 -6 31 -15 31 -19 0
-14 -40 -22 -75 -16 -57 11 -128 -20 -200 -85 -66 -60 -98 -68 -110 -29 -3 10
-13 20 -21 22 -13 2 -12 7 6 30 23 30 105 60 139 51 19 -5 32 0 106 41 35 19
79 21 124 5z m-469 -19 c0 -11 -4 -20 -10 -20 -5 0 -10 9 -10 20 0 11 5 20 10
20 6 0 10 -9 10 -20z m-57 -14 c-5 -27 -33 -44 -33 -22 0 25 12 46 25 46 8 0
11 -9 8 -24z m745 -39 c8 -6 12 -20 10 -31 -4 -19 0 -21 46 -18 41 3 57 -1 79
-18 37 -29 34 -45 -12 -75 -55 -37 -99 -42 -134 -15 -15 12 -27 28 -27 37 0
13 -8 14 -40 9 -37 -6 -41 -4 -50 19 -5 14 -11 25 -14 25 -18 0 -36 -15 -36
-30 0 -28 -81 -38 -126 -17 -44 22 -71 62 -54 82 17 21 78 37 125 33 30 -2 42
-9 50 -25 12 -29 27 -29 51 -2 39 44 96 55 132 26z m-605 -12 c-20 -28 -51
-41 -64 -28 -16 16 27 52 64 53 17 0 17 -1 0 -25z m1546 -55 c55 -27 101 -69
101 -90 0 -21 -54 -70 -77 -70 -8 0 -37 12 -64 28 -38 20 -51 24 -57 14 -6 -9
-14 -6 -30 11 l-23 24 49 52 c26 28 51 51 55 51 4 0 25 -9 46 -20z m276 0 c14
-5 28 -16 31 -24 9 -24 -27 -74 -66 -92 -19 -9 -43 -26 -52 -38 -17 -21 -17
-21 -37 24 -28 62 -26 77 14 117 37 37 45 38 110 13z m-2040 -73 c-8 -19 -20
-39 -26 -42 -15 -10 -43 20 -34 35 8 13 67 51 72 46 2 -2 -3 -19 -12 -39z
m2242 21 c38 -26 50 -53 33 -73 -17 -20 -36 -19 -81 7 -42 24 -48 41 -22 70
21 23 30 23 70 -4z m-957 2 c11 -6 25 -29 32 -51 11 -37 10 -43 -7 -55 -42
-31 -126 -10 -151 37 -17 34 -18 51 -2 67 15 15 102 16 128 2z m-766 -34 c31
-13 32 -15 27 -57 -7 -52 -32 -69 -103 -69 -49 0 -88 24 -88 54 0 28 41 65 83
74 23 6 43 10 45 11 1 1 17 -5 36 -13z m1094 -40 c45 -47 52 -59 52 -94 0 -32
-6 -45 -26 -61 -15 -12 -34 -21 -44 -21 -18 0 -75 84 -86 124 -6 23 29 106 44
106 4 0 31 -24 60 -54z m-1498 2 c0 -7 -16 -23 -35 -35 -61 -40 -107 -24 -61
22 27 27 96 36 96 13z m938 -44 c48 -33 10 -114 -54 -114 -65 0 -104 32 -84
70 28 53 95 75 138 44z m1116 -8 c85 -35 86 -130 2 -160 -28 -10 -110 78 -102
110 5 19 3 22 -11 18 -14 -4 -14 -3 2 7 11 7 26 14 34 15 7 2 18 7 24 13 14
14 11 14 51 -3z m-1966 -60 c-4 -26 -36 -28 -51 -4 -8 12 -7 24 2 45 l13 28
19 -24 c11 -14 19 -34 17 -45z m-348 20 c0 -8 10 -16 23 -18 12 -2 22 -10 22
-18 0 -20 -48 -42 -73 -33 -19 8 -19 10 -5 46 15 37 33 50 33 23z m1524 -7
c73 -33 4 -115 -73 -88 -39 14 -43 30 -20 68 20 34 49 40 93 20z m573 -11 c15
-14 23 -33 23 -55 0 -52 -15 -73 -53 -73 -45 0 -70 21 -73 59 -2 25 5 37 34
61 20 17 39 30 41 30 3 0 15 -10 28 -22z m-812 -75 c1 -48 -1 -52 -13 -36 -7
10 -11 27 -8 38 3 11 6 31 6 44 0 13 3 21 7 17 4 -4 8 -32 8 -63z m-363 28
c13 -5 30 -20 37 -35 8 -14 31 -37 52 -50 40 -27 44 -35 54 -108 3 -28 16 -60
29 -75 23 -27 39 -69 51 -126 7 -34 50 -77 77 -77 10 0 21 -7 25 -16 4 -11 12
2 23 39 33 107 98 160 195 159 68 0 115 -23 165 -79 35 -41 40 -43 29 -18 -16
39 -57 83 -91 101 -16 8 -28 20 -28 26 0 6 -7 20 -17 30 -14 16 -14 18 0 18 8
0 22 3 30 6 9 3 22 -7 36 -30 12 -19 44 -49 71 -66 38 -24 53 -41 61 -70 13
-43 111 -157 146 -171 32 -12 56 -71 50 -123 -9 -68 -66 -266 -92 -318 -88
-175 -266 -388 -366 -439 -68 -34 -95 -38 -84 -11 4 9 11 54 14 98 6 78 8 83
49 127 23 26 42 49 42 52 0 10 -34 -13 -53 -35 -10 -12 -21 -19 -25 -16 -3 4
15 28 40 54 63 65 97 124 105 180 3 26 10 50 16 53 5 4 6 12 2 19 -6 10 -11 9
-20 -3 -17 -23 -52 -34 -160 -52 -52 -8 -109 -24 -126 -34 -24 -15 -43 -18
-78 -14 -30 3 -74 -2 -125 -16 -44 -12 -95 -21 -113 -21 l-33 0 19 -39 c22
-43 88 -104 139 -129 17 -9 32 -20 32 -25 0 -5 -20 3 -45 17 -25 15 -45 25
-45 23 0 -3 24 -23 53 -45 43 -34 55 -50 65 -89 7 -26 24 -69 38 -97 l25 -49
-52 6 c-129 15 -422 229 -519 379 -67 103 -91 177 -106 338 -17 173 -29 250
-55 348 -25 96 -13 208 20 188 14 -9 15 -53 1 -61 -28 -18 2 -118 40 -130 14
-4 20 -15 20 -35 0 -16 5 -32 10 -35 6 -3 10 -28 10 -54 0 -75 10 -111 30
-111 10 0 43 12 74 26 37 17 83 28 134 32 75 6 76 6 32 13 -25 4 -64 5 -87 2
l-43 -5 0 54 c0 45 4 58 24 75 13 12 27 19 30 16 3 -4 6 -1 6 6 0 8 7 10 19 6
10 -3 41 3 67 14 27 11 40 20 29 20 -11 0 -31 -6 -45 -14 -38 -22 -59 -18 -25
5 38 25 29 25 -27 1 -66 -28 -76 -16 -71 84 3 58 11 94 28 130 13 28 27 68 30
89 12 76 83 115 157 87z m-327 -32 c54 -32 62 -54 29 -84 -36 -34 -91 -34
-128 0 -31 29 -33 44 -5 79 25 32 56 33 104 5z m1289 2 c24 -26 14 -51 -35
-96 -43 -38 -58 -41 -40 -7 6 12 11 30 11 42 0 25 27 80 39 80 4 0 16 -9 25
-19z m-670 -17 c22 -9 10 -24 -20 -24 -23 0 -31 10 -17 23 8 9 17 9 37 1z
m-1090 -39 c-4 -39 -17 -70 -47 -102 -39 -43 -60 -19 -38 40 10 27 68 97 80
97 4 0 6 -16 5 -35z m1820 -11 c17 -44 -19 -108 -58 -102 -31 5 -30 29 4 76
32 45 44 51 54 26z m-378 -9 c9 -23 -16 -46 -45 -43 -33 4 -39 31 -9 46 32 15
48 14 54 -3z m-1610 -19 c3 -15 -3 -43 -15 -72 l-21 -47 -25 23 c-32 30 -31
42 6 85 37 41 47 43 55 11z m328 -12 c19 -50 -6 -94 -43 -74 -26 14 -26 30 0
64 24 30 34 33 43 10z m926 -4 c-8 -5 -17 -7 -19 -4 -3 3 1 9 9 14 8 5 17 7
19 4 3 -3 -1 -9 -9 -14z m143 -67 c15 -20 27 -43 26 -52 0 -9 -24 -37 -53 -63
l-54 -48 -11 45 c-14 56 -14 102 0 111 6 3 18 23 26 43 14 33 17 34 27 17 6
-10 23 -34 39 -53z m865 -8 c24 -28 28 -50 12 -60 -5 -3 -10 1 -10 10 0 10
-12 31 -27 49 -27 32 -27 31 -3 -17 13 -26 12 -33 -5 -65 -17 -31 -26 -38 -56
-40 -25 -2 -40 3 -52 16 -17 19 -17 22 0 61 10 23 26 44 35 47 10 3 18 12 18
20 0 24 61 9 88 -21z m216 23 c59 -26 36 -74 -48 -100 -36 -11 -40 -10 -57 11
-23 28 -24 50 -3 79 17 25 66 30 108 10z m-1810 -54 c22 -9 20 -51 -3 -64 -31
-16 -77 -12 -102 9 -29 24 -20 37 36 50 53 12 51 12 69 5z m1934 -96 c7 -7 12
-19 12 -27 0 -11 -4 -10 -20 4 -21 19 -26 35 -12 35 4 0 13 -5 20 -12z m-2291
-48 c19 -23 15 -39 -11 -46 -32 -8 -66 4 -66 22 0 8 7 26 16 40 17 26 30 22
61 -16z m-202 0 c33 -36 -4 -69 -39 -34 -18 18 -18 17 -10 38 8 22 27 20 49
-4z m-145 -45 c10 -19 11 -30 2 -50 -13 -29 -38 -32 -64 -8 -22 20 -23 32 -2
61 20 29 47 28 64 -3z m2534 -1 c21 -8 31 -66 16 -94 -14 -25 -72 -52 -94 -44
-21 8 -21 65 -1 104 19 36 44 47 79 34z m-252 -41 c23 -27 6 -57 -41 -77 -54
-21 -84 -20 -105 3 -35 39 15 76 120 90 6 0 18 -7 26 -16z m-2122 -91 c0 -4
20 -18 44 -31 55 -28 65 -50 36 -73 -26 -21 -100 -24 -118 -6 -19 19 -15 95 6
107 21 12 32 14 32 3z m388 -118 l-3 -29 -13 23 c-8 13 -11 31 -7 39 9 26 27
0 23 -33z m-518 16 c6 -12 10 -33 8 -48 -4 -36 -49 -43 -71 -11 -17 23 -13 47
11 67 23 18 40 15 52 -8z m2630 -19 c15 -30 12 -53 -7 -49 -16 3 -36 51 -25
62 10 11 21 6 32 -13z m-184 -63 c10 -16 -25 -38 -63 -38 -39 0 -42 11 -10 33
26 19 63 22 73 5z m-1894 -110 c35 -109 36 -137 4 -125 -22 8 -69 95 -69 125
1 40 15 112 22 112 3 0 23 -51 43 -112z m-228 42 c18 -18 18 -20 2 -45 -26
-39 -58 -50 -104 -37 -74 22 -93 80 -34 100 39 13 114 3 136 -18z m-294 -126
c0 -8 -4 -12 -10 -9 -5 3 -10 13 -10 21 0 8 5 12 10 9 6 -3 10 -13 10 -21z
m70 -20 c0 -14 -4 -23 -10 -19 -5 3 -10 15 -10 26 0 10 5 19 10 19 6 0 10 -12
10 -26z m2310 2 c0 -15 -18 -31 -26 -23 -7 7 7 37 17 37 5 0 9 -6 9 -14z
m-1120 -75 c-21 -13 -160 -34 -190 -29 -14 2 22 11 80 20 131 19 128 19 110 9z
m-1060 -100 c0 -11 -50 -24 -58 -16 -8 8 19 25 41 25 9 0 17 -4 17 -9z m1186
-38 c14 -15 16 -31 11 -112 -10 -138 -48 -195 -121 -177 -26 6 -87 93 -104
146 -23 76 -23 106 -2 125 19 17 25 17 70 6 46 -12 52 -11 76 8 32 25 47 26
70 4z m-1119 -49 c38 -29 42 -50 11 -57 -28 -7 -93 7 -114 24 -13 11 -10 16
23 36 21 12 40 23 42 23 2 0 19 -11 38 -26z"/>
<path d="M1839 1846 c-38 -22 -62 -65 -62 -112 0 -47 28 -93 57 -94 18 0 19 1
1 20 -18 20 -18 20 13 5 27 -14 35 -14 66 -1 20 8 44 28 54 45 14 23 21 28 30
19 9 -9 12 -8 12 5 0 27 -25 80 -48 100 -27 25 -90 31 -123 13z m11 -51 c16
-20 6 -45 -19 -45 -23 0 -32 18 -19 43 11 21 22 22 38 2z"/>
<path d="M1350 1596 c0 -2 7 -6 15 -10 8 -3 15 -1 15 4 0 6 -7 10 -15 10 -8 0
-15 -2 -15 -4z"/>
<path d="M1440 1382 c0 -27 29 -81 51 -92 13 -7 48 -11 87 -8 53 3 68 8 83 27
30 37 25 56 -8 31 -34 -24 -108 -35 -145 -21 -16 6 -37 25 -48 43 -11 18 -20
27 -20 20z"/>
<path d="M1820 3035 c0 -3 11 -18 25 -33 l25 -27 -12 33 c-7 17 -18 32 -25 32
-7 0 -13 -2 -13 -5z"/>
<path d="M1604 2992 c3 -5 18 -12 34 -15 15 -3 48 -24 74 -46 49 -44 58 -48
58 -28 0 7 12 20 28 30 l27 17 -41 -6 c-32 -5 -52 -1 -90 19 -61 30 -99 43
-90 29z"/>
<path d="M1138 2973 c7 -3 16 -2 19 1 4 3 -2 6 -13 5 -11 0 -14 -3 -6 -6z"/>
<path d="M2235 2940 l16 -30 -31 0 c-16 0 -30 -4 -30 -9 0 -8 147 -21 155 -13
1 1 -14 19 -34 40 -23 24 -40 34 -48 29 -6 -4 -14 -3 -18 3 -15 24 -24 7 -10
-20z"/>
<path d="M1563 2865 l-28 -25 50 18 c28 11 57 22 65 25 8 3 -2 6 -22 6 -26 1
-45 -6 -65 -24z"/>
<path d="M1555 2790 c3 -5 17 -10 31 -10 14 0 22 4 19 10 -3 6 -17 10 -31 10
-14 0 -22 -4 -19 -10z"/>
<path d="M2712 2686 c1 -23 9 -41 19 -47 15 -8 16 -5 5 31 -16 54 -27 62 -24
16z"/>
<path d="M336 2334 c-5 -14 -4 -15 9 -4 17 14 19 20 6 20 -5 0 -12 -7 -15 -16z"/>
</g>
</svg>
